<svg width="50" height="50" viewBox="0 0 50 50" fill="none" xmlns="http://www.w3.org/2000/svg">
<path d="M25 8.33333C14.5833 8.33333 5.68748 14.8125 2.08331 23.9583C5.68748 33.1042 14.5833 39.5833 25 39.5833C35.4166 39.5833 44.3125 33.1042 47.9166 23.9583C44.3125 14.8125 35.4166 8.33333 25 8.33333ZM25 34.375C19.25 34.375 14.5833 29.7083 14.5833 23.9583C14.5833 18.2083 19.25 13.5417 25 13.5417C30.75 13.5417 35.4166 18.2083 35.4166 23.9583C35.4166 29.7083 30.75 34.375 25 34.375ZM25 17.7083C21.5416 17.7083 18.75 20.5 18.75 23.9583C18.75 27.4167 21.5416 30.2083 25 30.2083C28.4583 30.2083 31.25 27.4167 31.25 23.9583C31.25 20.5 28.4583 17.7083 25 17.7083Z" fill="#131314"/>
</svg>
