<svg width="84" height="11" viewBox="0 0 84 11" fill="none" xmlns="http://www.w3.org/2000/svg">
<path d="M0.144886 10V0.545454H1.28977V8.98438H5.68466V10H0.144886ZM10.2827 10.1477C9.59943 10.1477 9.01006 9.99692 8.51456 9.69531C8.02214 9.39062 7.64205 8.96591 7.37429 8.42116C7.10961 7.87334 6.97727 7.23627 6.97727 6.50994C6.97727 5.78362 7.10961 5.14347 7.37429 4.58949C7.64205 4.03243 8.01444 3.59848 8.49148 3.28764C8.97159 2.97372 9.53172 2.81676 10.1719 2.81676C10.5412 2.81676 10.9059 2.87831 11.266 3.00142C11.6261 3.12453 11.9538 3.32457 12.2493 3.60156C12.5447 3.87547 12.7802 4.23864 12.9556 4.69105C13.131 5.14347 13.2188 5.70052 13.2188 6.36222V6.82386H7.75284V5.8821H12.1108C12.1108 5.48201 12.0308 5.125 11.8707 4.81108C11.7138 4.49716 11.4891 4.24941 11.1967 4.06783C10.9074 3.88625 10.5658 3.79545 10.1719 3.79545C9.73793 3.79545 9.36245 3.90317 9.04545 4.11861C8.73153 4.33097 8.48994 4.60795 8.32067 4.94957C8.1514 5.29119 8.06676 5.65743 8.06676 6.0483V6.67614C8.06676 7.21165 8.15909 7.6656 8.34375 8.038C8.53149 8.40732 8.79155 8.68892 9.12393 8.88281C9.45632 9.07363 9.84257 9.16903 10.2827 9.16903C10.5689 9.16903 10.8274 9.12902 11.0582 9.04901C11.2921 8.96591 11.4937 8.8428 11.663 8.67969C11.8323 8.51349 11.9631 8.30729 12.0554 8.06108L13.108 8.35653C12.9972 8.71354 12.811 9.02746 12.5494 9.2983C12.2878 9.56605 11.9646 9.77533 11.5799 9.92614C11.1952 10.0739 10.7628 10.1477 10.2827 10.1477ZM16.9627 10.1662C16.5134 10.1662 16.1056 10.0816 15.7393 9.91229C15.3731 9.73994 15.0823 9.49219 14.8668 9.16903C14.6514 8.8428 14.5437 8.44886 14.5437 7.98722C14.5437 7.58097 14.6237 7.25166 14.7837 6.99929C14.9438 6.74384 15.1577 6.5438 15.4254 6.39915C15.6932 6.2545 15.9886 6.14678 16.3118 6.07599C16.638 6.00213 16.9658 5.94366 17.2951 5.90057C17.726 5.84517 18.0753 5.80362 18.343 5.77592C18.6139 5.74515 18.8108 5.69437 18.9339 5.62358C19.0601 5.55279 19.1232 5.42969 19.1232 5.25426V5.21733C19.1232 4.76184 18.9986 4.40791 18.7493 4.15554C18.5031 3.90317 18.1291 3.77699 17.6275 3.77699C17.1074 3.77699 16.6996 3.89086 16.4041 4.11861C16.1087 4.34635 15.9009 4.58949 15.7809 4.84801L14.7468 4.47869C14.9315 4.04782 15.1777 3.71236 15.4854 3.4723C15.7963 3.22917 16.1348 3.0599 16.5011 2.96449C16.8704 2.866 17.2335 2.81676 17.5906 2.81676C17.8183 2.81676 18.0799 2.84446 18.3754 2.89986C18.6739 2.95218 18.9616 3.06143 19.2386 3.22763C19.5187 3.39382 19.7511 3.64465 19.9357 3.98011C20.1204 4.31558 20.2127 4.76491 20.2127 5.32812V10H19.1232V9.03977H19.0678C18.994 9.19366 18.8709 9.35831 18.6985 9.53374C18.5262 9.70916 18.2969 9.85843 18.0107 9.98153C17.7244 10.1046 17.3751 10.1662 16.9627 10.1662ZM17.1289 9.1875C17.5598 9.1875 17.9229 9.10286 18.2184 8.93359C18.5169 8.76432 18.7416 8.54581 18.8924 8.27805C19.0463 8.0103 19.1232 7.72869 19.1232 7.43324V6.43608C19.0771 6.49148 18.9755 6.54226 18.8185 6.58842C18.6647 6.63151 18.4862 6.66998 18.283 6.70383C18.083 6.73461 17.8875 6.76231 17.6967 6.78693C17.509 6.80848 17.3567 6.82694 17.2397 6.84233C16.9566 6.87926 16.6919 6.93928 16.4457 7.02237C16.2025 7.10239 16.0056 7.22396 15.8548 7.38707C15.707 7.54711 15.6332 7.76562 15.6332 8.04261C15.6332 8.42116 15.7732 8.70739 16.0533 8.90128C16.3364 9.09209 16.695 9.1875 17.1289 9.1875ZM22.2013 10V2.90909H23.2538V3.98011H23.3277C23.4569 3.62926 23.6908 3.34458 24.0294 3.12606C24.3679 2.90755 24.7496 2.79829 25.1743 2.79829C25.2543 2.79829 25.3543 2.79983 25.4743 2.80291C25.5944 2.80599 25.6852 2.81061 25.7467 2.81676V3.92472C25.7098 3.91548 25.6251 3.90163 25.4928 3.88317C25.3635 3.86162 25.2266 3.85085 25.0819 3.85085C24.7372 3.85085 24.4295 3.92318 24.1586 4.06783C23.8909 4.2094 23.6785 4.40637 23.5216 4.65874C23.3677 4.90803 23.2907 5.19271 23.2907 5.51278V10H22.2013ZM28.1277 5.73438V10H27.0382V2.90909H28.0907V4.01705H28.1831C28.3493 3.65696 28.6016 3.36766 28.9402 3.14915C29.2787 2.92756 29.7157 2.81676 30.2512 2.81676C30.7314 2.81676 31.1515 2.91525 31.5115 3.11222C31.8716 3.30611 32.1517 3.60156 32.3517 3.99858C32.5518 4.39252 32.6518 4.8911 32.6518 5.49432V10H31.5623V5.56818C31.5623 5.01113 31.4177 4.57718 31.1284 4.26633C30.8391 3.95241 30.4421 3.79545 29.9373 3.79545C29.5895 3.79545 29.2787 3.87086 29.0048 4.02166C28.734 4.17247 28.5201 4.39252 28.3631 4.68182C28.2061 4.97112 28.1277 5.32197 28.1277 5.73438ZM38.2989 10V2.90909H39.3515V4.01705H39.4438C39.5915 3.63849 39.83 3.34458 40.1594 3.1353C40.4887 2.92294 40.8841 2.81676 41.3458 2.81676C41.8136 2.81676 42.2029 2.92294 42.5138 3.1353C42.8277 3.34458 43.0724 3.63849 43.2478 4.01705H43.3216C43.5032 3.6508 43.7756 3.35997 44.1388 3.14453C44.5019 2.92602 44.9374 2.81676 45.4452 2.81676C46.0792 2.81676 46.5978 3.01527 47.001 3.41229C47.4041 3.80623 47.6057 4.42022 47.6057 5.25426V10H46.5162V5.25426C46.5162 4.73106 46.3731 4.35713 46.0869 4.13246C45.8007 3.90779 45.4637 3.79545 45.0759 3.79545C44.5773 3.79545 44.1911 3.94626 43.9172 4.24787C43.6433 4.5464 43.5063 4.92495 43.5063 5.38352V10H42.3983V5.14347C42.3983 4.74029 42.2675 4.4156 42.0059 4.16939C41.7443 3.9201 41.4073 3.79545 40.9949 3.79545C40.7118 3.79545 40.4471 3.87086 40.2009 4.02166C39.9578 4.17247 39.7608 4.38175 39.61 4.6495C39.4623 4.91418 39.3884 5.22041 39.3884 5.56818V10H38.2989ZM52.4784 10.1477C51.8383 10.1477 51.2766 9.99538 50.7934 9.6907C50.3133 9.38601 49.9378 8.95975 49.667 8.41193C49.3992 7.86411 49.2654 7.22396 49.2654 6.49148C49.2654 5.75284 49.3992 5.10807 49.667 4.55717C49.9378 4.00627 50.3133 3.57848 50.7934 3.27379C51.2766 2.96911 51.8383 2.81676 52.4784 2.81676C53.1186 2.81676 53.6787 2.96911 54.1588 3.27379C54.642 3.57848 55.0175 4.00627 55.2852 4.55717C55.5561 5.10807 55.6915 5.75284 55.6915 6.49148C55.6915 7.22396 55.5561 7.86411 55.2852 8.41193C55.0175 8.95975 54.642 9.38601 54.1588 9.6907C53.6787 9.99538 53.1186 10.1477 52.4784 10.1477ZM52.4784 9.16903C52.9647 9.16903 53.3648 9.04439 53.6787 8.7951C53.9926 8.54581 54.225 8.21804 54.3758 7.81179C54.5266 7.40554 54.602 6.96544 54.602 6.49148C54.602 6.01752 54.5266 5.57588 54.3758 5.16655C54.225 4.75722 53.9926 4.42637 53.6787 4.17401C53.3648 3.92164 52.9647 3.79545 52.4784 3.79545C51.9922 3.79545 51.5921 3.92164 51.2781 4.17401C50.9642 4.42637 50.7319 4.75722 50.5811 5.16655C50.4302 5.57588 50.3548 6.01752 50.3548 6.49148C50.3548 6.96544 50.4302 7.40554 50.5811 7.81179C50.7319 8.21804 50.9642 8.54581 51.2781 8.7951C51.5921 9.04439 51.9922 9.16903 52.4784 9.16903ZM57.3546 10V2.90909H58.4071V3.98011H58.481C58.6103 3.62926 58.8442 3.34458 59.1827 3.12606C59.5212 2.90755 59.9029 2.79829 60.3276 2.79829C60.4076 2.79829 60.5076 2.79983 60.6277 2.80291C60.7477 2.80599 60.8385 2.81061 60.9 2.81676V3.92472C60.8631 3.91548 60.7785 3.90163 60.6461 3.88317C60.5169 3.86162 60.3799 3.85085 60.2353 3.85085C59.8906 3.85085 59.5828 3.92318 59.312 4.06783C59.0442 4.2094 58.8319 4.40637 58.6749 4.65874C58.521 4.90803 58.4441 5.19271 58.4441 5.51278V10H57.3546ZM64.9487 10.1477C64.2654 10.1477 63.6761 9.99692 63.1806 9.69531C62.6882 9.39062 62.3081 8.96591 62.0403 8.42116C61.7756 7.87334 61.6433 7.23627 61.6433 6.50994C61.6433 5.78362 61.7756 5.14347 62.0403 4.58949C62.3081 4.03243 62.6805 3.59848 63.1575 3.28764C63.6376 2.97372 64.1977 2.81676 64.8379 2.81676C65.2072 2.81676 65.5719 2.87831 65.932 3.00142C66.2921 3.12453 66.6199 3.32457 66.9153 3.60156C67.2108 3.87547 67.4462 4.23864 67.6216 4.69105C67.7971 5.14347 67.8848 5.70052 67.8848 6.36222V6.82386H62.4189V5.8821H66.7768C66.7768 5.48201 66.6968 5.125 66.5368 4.81108C66.3798 4.49716 66.1551 4.24941 65.8627 4.06783C65.5734 3.88625 65.2318 3.79545 64.8379 3.79545C64.4039 3.79545 64.0285 3.90317 63.7115 4.11861C63.3975 4.33097 63.156 4.60795 62.9867 4.94957C62.8174 5.29119 62.7328 5.65743 62.7328 6.0483V6.67614C62.7328 7.21165 62.8251 7.6656 63.0098 8.038C63.1975 8.40732 63.4576 8.68892 63.79 8.88281C64.1223 9.07363 64.5086 9.16903 64.9487 9.16903C65.2349 9.16903 65.4934 9.12902 65.7243 9.04901C65.9582 8.96591 66.1597 8.8428 66.329 8.67969C66.4983 8.51349 66.6291 8.30729 66.7214 8.06108L67.774 8.35653C67.6632 8.71354 67.477 9.02746 67.2154 9.2983C66.9538 9.56605 66.6306 9.77533 66.2459 9.92614C65.8612 10.0739 65.4288 10.1477 64.9487 10.1477ZM79.1905 10L78.4796 9.2983L81.4064 6.37145H73.8262V5.35582H81.4064L78.4796 2.43821L79.1905 1.72727L83.3269 5.86364L79.1905 10Z" fill="#131314"/>
</svg>
