<svg width="24" height="24" viewBox="0 0 24 24" fill="none" xmlns="http://www.w3.org/2000/svg">
<path d="M7.95373 7.95379C7.63448 8.27303 7.63448 8.79067 7.95373 9.10987L10.844 12.0001L7.95374 14.8903C7.63449 15.2096 7.63449 15.7272 7.95374 16.0464C8.27298 16.3656 8.79061 16.3656 9.10981 16.0464L12 13.1561L14.8902 16.0464C15.2094 16.3656 15.727 16.3656 16.0462 16.0464C16.3655 15.7271 16.3655 15.2096 16.0462 14.8903L13.1561 12.0001L16.0462 9.10987C16.3655 8.79067 16.3655 8.27303 16.0462 7.95379C15.727 7.63455 15.2094 7.63455 14.8902 7.95379L12 10.844L9.10981 7.95379C8.79061 7.63454 8.27297 7.63454 7.95373 7.95379Z" fill="black"/>
</svg>
